<svg width="141" height="34" viewBox="0 0 141 34" fill="none" xmlns="http://www.w3.org/2000/svg">
<g clip-path="url(#clip0_17_2)">
<path fill-rule="evenodd" clip-rule="evenodd" d="M17.889 11.1797C16.7378 10.4105 15.3845 10 14 10V3C16.7689 3 19.4757 3.82109 21.778 5.35943C24.0803 6.89776 25.8747 9.08427 26.9343 11.6424C27.9939 14.2006 28.2712 17.0155 27.731 19.7313C27.1908 22.447 25.8574 24.9416 23.8995 26.8995C21.9416 28.8574 19.447 30.1908 16.7313 30.731C14.0155 31.2712 11.2006 30.9939 8.64241 29.9343C6.08427 28.8747 3.89776 27.0803 2.35943 24.778C0.821086 22.4757 0 19.7689 0 17H7C7 18.3845 7.41055 19.7378 8.17971 20.889C8.94887 22.0401 10.0421 22.9373 11.3212 23.4672C12.6003 23.997 14.0078 24.1356 15.3656 23.8655C16.7235 23.5954 17.9708 22.9287 18.9498 21.9498C19.9287 20.9708 20.5954 19.7235 20.8655 18.3656C21.1356 17.0078 20.997 15.6003 20.4672 14.3212C19.9373 13.0421 19.0401 11.9489 17.889 11.1797Z" fill="url(#paint0_linear_17_2)"/>
<path fill-rule="evenodd" clip-rule="evenodd" d="M7 3C7 3.91926 6.81894 4.82951 6.46716 5.67878C6.11537 6.52807 5.59976 7.29974 4.94975 7.94975C4.29974 8.59977 3.52807 9.11538 2.67878 9.46716C1.8295 9.81894 0.91925 10 3.05977e-07 10L0 17C1.8385 17 3.65901 16.6379 5.35757 15.9343C7.05614 15.2308 8.5995 14.1995 9.89947 12.8995C11.1995 11.5995 12.2307 10.0561 12.9343 8.35757C13.6379 6.65901 14 4.8385 14 3L7 3Z" fill="url(#paint1_linear_17_2)"/>
</g>
<path d="M37.7216 26V8.54545H40.8835V16.5653H41.0966L47.9062 8.54545H51.767L45.017 16.3778L51.8267 26H48.0256L42.8182 18.517L40.8835 20.8011V26H37.7216ZM56.6246 18.3295V26H53.5394V12.9091H56.4883V15.1335H56.6417C56.9428 14.4006 57.4229 13.8182 58.082 13.3864C58.7468 12.9545 59.5678 12.7386 60.5451 12.7386C61.4485 12.7386 62.2354 12.9318 62.9059 13.3182C63.582 13.7045 64.1048 14.2642 64.4741 14.9972C64.8491 15.7301 65.0337 16.6193 65.0281 17.6648V26H61.9428V18.142C61.9428 17.267 61.7156 16.5824 61.261 16.0881C60.8121 15.5937 60.19 15.3466 59.3945 15.3466C58.8548 15.3466 58.3746 15.4659 57.9542 15.7045C57.5394 15.9375 57.2127 16.2756 56.9741 16.7188C56.7411 17.1619 56.6246 17.6989 56.6246 18.3295ZM73.5866 26.2557C72.3082 26.2557 71.2003 25.9744 70.2628 25.4119C69.3253 24.8494 68.598 24.0625 68.081 23.0511C67.5696 22.0398 67.3139 20.858 67.3139 19.5057C67.3139 18.1534 67.5696 16.9687 68.081 15.9517C68.598 14.9347 69.3253 14.1449 70.2628 13.5824C71.2003 13.0199 72.3082 12.7386 73.5866 12.7386C74.8651 12.7386 75.973 13.0199 76.9105 13.5824C77.848 14.1449 78.5724 14.9347 79.0838 15.9517C79.6008 16.9687 79.8594 18.1534 79.8594 19.5057C79.8594 20.858 79.6008 22.0398 79.0838 23.0511C78.5724 24.0625 77.848 24.8494 76.9105 25.4119C75.973 25.9744 74.8651 26.2557 73.5866 26.2557ZM73.6037 23.7841C74.2969 23.7841 74.8764 23.5937 75.3423 23.2131C75.8082 22.8267 76.1548 22.3097 76.3821 21.6619C76.6151 21.0142 76.7315 20.2926 76.7315 19.4972C76.7315 18.696 76.6151 17.9716 76.3821 17.3239C76.1548 16.6705 75.8082 16.1506 75.3423 15.7642C74.8764 15.3778 74.2969 15.1847 73.6037 15.1847C72.8935 15.1847 72.3026 15.3778 71.831 15.7642C71.3651 16.1506 71.0156 16.6705 70.7827 17.3239C70.5554 17.9716 70.4418 18.696 70.4418 19.4972C70.4418 20.2926 70.5554 21.0142 70.7827 21.6619C71.0156 22.3097 71.3651 22.8267 71.831 23.2131C72.3026 23.5937 72.8935 23.7841 73.6037 23.7841ZM84.5167 26L80.8178 12.9091H83.9627L86.2638 22.1136H86.3832L88.7354 12.9091H91.8462L94.1985 22.0625H94.3263L96.5934 12.9091H99.7468L96.0394 26H92.8263L90.3718 17.1534H90.1928L87.7383 26H84.5167ZM113.306 12.9091L108.644 26H105.235L100.573 12.9091H103.863L106.871 22.6335H107.008L110.025 12.9091H113.306ZM120.503 26.2557C119.191 26.2557 118.057 25.983 117.103 25.4375C116.154 24.8864 115.424 24.108 114.912 23.1023C114.401 22.0909 114.145 20.9006 114.145 19.5312C114.145 18.1847 114.401 17.0028 114.912 15.9858C115.429 14.9631 116.151 14.1676 117.077 13.5994C118.003 13.0256 119.091 12.7386 120.341 12.7386C121.148 12.7386 121.909 12.8693 122.625 13.1307C123.347 13.3864 123.983 13.7841 124.534 14.3239C125.091 14.8636 125.529 15.5511 125.847 16.3864C126.165 17.2159 126.324 18.2045 126.324 19.3523V20.2983H115.594V18.2188H123.367C123.361 17.6278 123.233 17.1023 122.983 16.642C122.733 16.1761 122.384 15.8097 121.935 15.5426C121.492 15.2756 120.975 15.142 120.384 15.142C119.753 15.142 119.199 15.2955 118.722 15.6023C118.245 15.9034 117.872 16.3011 117.605 16.7955C117.344 17.2841 117.211 17.821 117.205 18.4062V20.2216C117.205 20.983 117.344 21.6364 117.622 22.1818C117.901 22.7216 118.29 23.1364 118.79 23.4261C119.29 23.7102 119.875 23.8523 120.546 23.8523C120.995 23.8523 121.401 23.7898 121.765 23.6648C122.128 23.5341 122.444 23.3438 122.711 23.0938C122.978 22.8438 123.179 22.5341 123.316 22.1648L126.196 22.4886C126.015 23.25 125.668 23.9148 125.157 24.483C124.651 25.0455 124.003 25.483 123.213 25.7955C122.424 26.1023 121.52 26.2557 120.503 26.2557ZM130.888 12.9091L133.53 17.7415L136.214 12.9091H139.479L135.533 19.4545L139.547 26H136.3L133.53 21.2869L130.785 26H127.513L131.501 19.4545L127.615 12.9091H130.888Z" fill="#130F0C"/>
<defs>
<linearGradient id="paint0_linear_17_2" x1="0" y1="3" x2="32.3121" y2="9.47221" gradientUnits="userSpaceOnUse">
<stop stop-color="#2984FF"/>
<stop offset="0.482292" stop-color="#2984FF" stop-opacity="0.6"/>
<stop offset="1" stop-color="#2984FF"/>
</linearGradient>
<linearGradient id="paint1_linear_17_2" x1="0" y1="3" x2="16.156" y2="6.2361" gradientUnits="userSpaceOnUse">
<stop stop-color="#2984FF"/>
<stop offset="0.482292" stop-color="#2984FF" stop-opacity="0.6"/>
<stop offset="1" stop-color="#2984FF"/>
</linearGradient>
<clipPath id="clip0_17_2">
<rect width="28" height="28" fill="white" transform="translate(0 3)"/>
</clipPath>
</defs>
</svg>
